<?xml version="1.0"?>
<svg xmlns="http://www.w3.org/2000/svg" height="106px" viewBox="0 -8 480 480" width="106px" id="icon-reading"><path d="m472 176h-24v-24c0-4.417969-3.582031-8-8-8h-19.59375c7.46875-12.015625 11.476562-25.855469 11.59375-40 0-57.34375-68.183594-104-152-104s-152 46.65625-152 104c.117188 14.144531 4.125 27.984375 11.59375 40h-99.59375c-4.417969 0-8 3.582031-8 8v24h-24c-4.417969 0-8 3.582031-8 8v272c0 4.417969 3.582031 8 8 8h464c4.417969 0 8-3.582031 8-8v-272c0-4.417969-3.582031-8-8-8zm-192-160c74.992188 0 136 39.480469 136 88-.375 15.882812-6.535156 31.085938-17.320312 42.753906-20.261719 21.191406-46.722657 35.417969-75.574219 40.628906-1.5.328126-2.875 1.078126-3.960938 2.160157l-39.144531 39.144531v-28.925781c.003906-4.308594-3.40625-7.847657-7.710938-8-10.34375-.335938-20.636718-1.523438-30.785156-3.546875-33.601562-6.398438-62.816406-21.527344-80.183594-41.460938-10.785156-11.667968-16.945312-26.871094-17.320312-42.753906 0-48.519531 61.007812-88 136-88zm-264 176h16v256h-16zm32 256v-32h144c19 .019531 35.375 13.386719 39.199219 32zm144-48h-144v-240h103.902344c21.894531 21.792969 49.777344 36.574219 80.097656 42.464844v214.398437c-10.511719-10.789062-24.9375-16.871093-40-16.863281zm56 16.878906v-211.351562c5.207031.800781 10.519531 1.433594 16 1.816406v40.65625c0 3.234375 1.949219 6.152344 4.9375 7.390625s6.429688.550781 8.71875-1.734375l51.144531-51.160156c30.046875-6.042969 57.636719-20.828125 79.3125-42.496094h23.886719v240h-144c-15.066406-.003906-29.492188 6.085938-40 16.878906zm40-.878906h144v32h-183.199219c3.824219-18.613281 20.199219-31.980469 39.199219-32zm176 32h-16v-256h16zm0 0" fill="#00b64f"/><path d="m272 96h16v16h-16zm0 0" fill="#00b64f"/><path d="m304 96h16v16h-16zm0 0" fill="#00b64f"/><path d="m240 96h16v16h-16zm0 0" fill="#00b64f"/><path d="m80 224h112v16h-112zm0 0" fill="#00b64f"/><path d="m80 272h112v16h-112zm0 0" fill="#00b64f"/><path d="m80 320h112v16h-112zm0 0" fill="#00b64f"/><path d="m336 224h64v16h-64zm0 0" fill="#00b64f"/><path d="m288 272h112v16h-112zm0 0" fill="#00b64f"/><path d="m288 320h112v16h-112zm0 0" fill="#00b64f"/></svg>
