<svg xmlns="http://www.w3.org/2000/svg" xmlns:xlink="http://www.w3.org/1999/xlink"><symbol id="icon-book-man" viewBox="0 0 480 480"><path d="M477.754 326c-8.215-31.805-36.906-54.016-69.754-54h-80c-39.746.043-71.957 32.254-72 72v128a8 8 0 0 0 8 8h208a8 8 0 0 0 8-8V344a74.378 74.378 0 0 0-2.246-18zm-71.203.313l-23.473-3.915 19.547-23.46zM390.91 288L368 315.496 345.09 288zm-57.536 10.945l19.547 23.453-23.45 3.907zM272 344c.05-27.293 19.75-50.578 46.656-55.152l-6.578 46.015a8.008 8.008 0 0 0 2.328 6.856 8.008 8.008 0 0 0 6.906 2.168L360 337.44V464h-48V360h-16v104h-24zm192 120h-24V360h-16v104h-48V337.441l38.688 6.446a8.008 8.008 0 0 0 6.906-2.168 8.008 8.008 0 0 0 2.328-6.856l-6.586-46.078a55.994 55.994 0 0 1 44.902 41.16A57.804 57.804 0 0 1 464 344zm0 0"/><path d="M424 216v-24a8 8 0 0 0 8-8 64.016 64.016 0 0 0-16-42.191V40a8 8 0 0 0-8-8h-24V8a8 8 0 0 0-8-8H248a39.854 39.854 0 0 0-32 16.246A39.854 39.854 0 0 0 184 0H40a8 8 0 0 0-8 8v24H8a8 8 0 0 0-8 8v272a8 8 0 0 0 8 8h72v40c0 3.234 1.95 6.152 4.938 7.39s6.43.551 8.718-1.734L112 347.312l18.344 18.344A8.001 8.001 0 0 0 136 368a7.849 7.849 0 0 0 3.063-.61A8.002 8.002 0 0 0 144 360v-40h104v-16h-24v-16h40v-16h-38.527A24.003 24.003 0 0 1 248 256h48v-16h-48a39.604 39.604 0 0 0-24 8.207V40c0-13.254 10.746-24 24-24h120v104c-35.328.04-63.96 28.672-64 64a8 8 0 0 0 8 8v24c0 30.93 25.07 56 56 56s56-25.07 56-56zM48 16h136c13.254 0 24 10.746 24 24v208.207A39.604 39.604 0 0 0 184 240H48zM16 48h16v256H16zm32 256v-48h136a24.003 24.003 0 0 1 22.527 16H64v16h16v16zm80 36.688l-10.344-10.344a8.004 8.004 0 0 0-11.312 0L96 340.688V288h32zM208 304h-64v-16h64zm192-175.352a62.257 62.257 0 0 0-16-6.55V48h16zM368 136c2.305-.023 4.61.164 6.879.559 20.062 2.941 36.129 18.14 40.176 38.007a53.87 53.87 0 0 1-24.399-19.007 8 8 0 0 0-5.863-3.52h-.8a8.001 8.001 0 0 0-5.657 2.344 28.153 28.153 0 0 1-6.281 4.457 192.537 192.537 0 0 1-51.086 15.558C325.563 152.07 345.203 136.031 368 136zm0 120c-22.082-.027-39.973-17.918-40-40l-.055-26.672a194.892 194.892 0 0 0 51.903-16.527 60.631 60.631 0 0 0 2.824-1.656A66.818 66.818 0 0 0 408 188.96V216c-.027 22.082-17.918 39.973-40 40zm0 0"/><path d="M248 48h96v16h-96zm0 0M248 96h96v16h-96zm0 0M248 144h48v16h-48zm0 0M248 192h48v16h-48zm0 0M72 48h112v16H72zm0 0M72 96h112v16H72zm0 0M72 144h112v16H72zm0 0M72 192h112v16H72zm0 0"/></symbol><symbol id="icon-book" viewBox="-21 -21 682.668 682"><path d="M485 585.328a12.595 12.595 0 0 0-8.836 3.66c-2.324 2.332-3.664 5.555-3.664 8.84s1.332 6.512 3.664 8.836c2.324 2.324 5.55 3.664 8.836 3.664s6.516-1.34 8.832-3.664c2.332-2.324 3.668-5.55 3.668-8.836s-1.336-6.515-3.668-8.84a12.586 12.586 0 0 0-8.832-3.66zm0 0" fill="#00b64f"/><path d="M637.277 590.043l-92.925-116.762a12.519 12.519 0 0 0-7.512-4.5c-.414-.082-42.375-7.945-100.336-26.797-38.832-12.632-70.895-12.554-95.281.239-9.25 4.855-16.09 10.922-21.067 16.754-4.969-5.832-11.812-11.899-21.058-16.754-24.391-12.793-56.446-12.871-95.29-.239-57.956 18.852-99.921 26.715-100.331 26.793a12.504 12.504 0 0 0-7.508 4.504L3.043 590.043a12.51 12.51 0 0 0-1.484 13.215 12.508 12.508 0 0 0 11.261 7.07H279.38c5.351 17.352 21.543 30 40.637 30 19.097 0 35.289-12.648 40.64-30h73.93c6.898 0 12.5-5.601 12.5-12.5 0-6.906-5.602-12.5-12.5-12.5h-76.074l-24.567-24.57c3.137-6.309 10.813-18.356 26.563-26.617 24.289-12.735 58.066-12.211 100.402 1.558 65.715 21.375 114.777 31.832 128.715 34.614l11.95 15.015h-65.743c-6.902 0-12.5 5.594-12.5 12.5 0 6.899 5.598 12.5 12.5 12.5h91.664a12.5 12.5 0 0 0 9.781-20.285zm-524.609-97.598c12.664-2.582 49.848-10.742 98.875-26.687 34.082-11.09 61.617-10.824 79.64.754 10.5 6.75 15.024 15.453 16.477 18.851v37.578a88.287 88.287 0 0 0-16.238-10.937c-30.473-15.988-70.762-16.008-119.746-.078-39.406 12.816-73.07 21.691-96.192 27.238zm-61.973 77.867c13.934-2.78 62.996-13.238 128.715-34.609 42.008-13.668 75.606-14.281 99.86-1.84 16.027 8.223 23.789 20.196 27.011 26.668l-24.793 24.797H38.746zm269.32 45.016c-9.062 0-16.538-6.918-17.421-15.746L320 582.172l17.441 17.441c-.898 8.817-8.367 15.715-17.425 15.715zm148.63-103.398c-48.985-15.934-89.274-15.91-119.743.074a88.253 88.253 0 0 0-16.242 10.937v-37.609c1.57-3.672 6.98-14.047 20.172-20.969 17.945-9.41 44.203-8.925 75.941 1.395 49.032 15.945 86.211 24.105 98.88 26.687l37.187 46.73c-23.102-5.542-56.75-14.413-96.195-27.245zm0 0M67.902 424.09c1.457 5.629 6.532 9.367 12.094 9.367 1.035 0 2.09-.129 3.14-.402 6.684-1.73 10.696-8.551 8.97-15.235l-67.5-260.62c-1.735-6.684-8.56-10.7-15.235-8.97-6.684 1.73-10.7 8.555-8.969 15.235zm0 0M556.867 433.055c1.047.273 2.102.402 3.137.402 5.562 0 10.637-3.738 12.098-9.367l67.5-260.625c1.726-6.68-2.286-13.504-8.973-15.235-6.684-1.73-13.5 2.286-15.234 8.97l-67.5 260.62c-1.727 6.684 2.285 13.504 8.972 15.235zm0 0M125.797 41.148c6.902 0 12.5-5.601 12.5-12.5V12.832c0-6.898-5.598-12.5-12.5-12.5-6.899 0-12.5 5.602-12.5 12.5v15.816c0 6.899 5.601 12.5 12.5 12.5zm0 0M125.797 116.926c6.902 0 12.5-5.598 12.5-12.5V88.613c0-6.902-5.598-12.5-12.5-12.5-6.899 0-12.5 5.598-12.5 12.5v15.813c0 6.902 5.601 12.5 12.5 12.5zm0 0M155.781 71.129h15.813c6.902 0 12.5-5.594 12.5-12.5 0-6.902-5.598-12.5-12.5-12.5H155.78c-6.902 0-12.5 5.598-12.5 12.5 0 6.906 5.598 12.5 12.5 12.5zm0 0M80.004 71.129h15.812c6.903 0 12.5-5.594 12.5-12.5 0-6.902-5.597-12.5-12.5-12.5H80.004c-6.902 0-12.5 5.598-12.5 12.5 0 6.906 5.598 12.5 12.5 12.5zm0 0M457.46 274.695c0-6.902-5.593-12.5-12.5-12.5-6.901 0-12.5 5.598-12.5 12.5v15.813c0 6.902 5.599 12.496 12.5 12.496 6.907 0 12.5-5.594 12.5-12.496zm0 0M444.96 337.977c-6.901 0-12.5 5.593-12.5 12.492v15.816c0 6.899 5.599 12.5 12.5 12.5 6.907 0 12.5-5.601 12.5-12.5V350.47c0-6.899-5.593-12.492-12.5-12.492zm0 0M474.945 307.988c-6.902 0-12.5 5.602-12.5 12.5 0 6.907 5.598 12.5 12.5 12.5h15.813c6.902 0 12.5-5.593 12.5-12.5 0-6.898-5.598-12.5-12.5-12.5zm0 0M414.98 307.988h-15.816c-6.898 0-12.5 5.602-12.5 12.5 0 6.907 5.602 12.5 12.5 12.5h15.816c6.899 0 12.5-5.593 12.5-12.5 0-6.898-5.601-12.5-12.5-12.5zm0 0M127.016 192.969a12.49 12.49 0 0 0-10.086 8.508 12.484 12.484 0 0 0 3.16 12.812l35.746 34.844-8.441 49.199a12.504 12.504 0 0 0 4.972 12.223 12.476 12.476 0 0 0 7.352 2.386c1.992 0 3.984-.472 5.812-1.437l44.188-23.227 44.18 23.227a12.498 12.498 0 0 0 18.136-13.172l-8.437-49.2 35.742-34.843a12.486 12.486 0 0 0 3.164-12.812 12.49 12.49 0 0 0-10.09-8.508l-49.394-7.176-22.098-44.766a12.5 12.5 0 0 0-11.203-6.968c-4.762 0-9.11 2.707-11.211 6.968l-22.09 44.766zm68.906 9.777l13.789-27.941 13.797 27.941a12.485 12.485 0 0 0 9.406 6.84l30.836 4.476-22.313 21.754a12.502 12.502 0 0 0-3.593 11.067l5.265 30.71-27.578-14.5a12.5 12.5 0 0 0-11.633 0l-27.585 14.5 5.269-30.71c.7-4.059-.648-8.196-3.594-11.067l-22.312-21.754 30.832-4.476a12.491 12.491 0 0 0 9.414-6.84zm0 0M377.738 94.918l36.2 11.254 11.25 36.191a12.5 12.5 0 0 0 9.98 8.64c.652.102 1.309.15 1.957.15 4.012 0 7.836-1.938 10.2-5.282l21.886-30.941 37.898.48c4.727.04 9.137-2.586 11.301-6.824a12.5 12.5 0 0 0-1.125-13.149L494.613 65.06 506.79 29.16c1.527-4.5.363-9.484-3-12.851a12.5 12.5 0 0 0-12.852-2.997l-35.894 12.172-30.375-22.672a12.516 12.516 0 0 0-13.148-1.117 12.508 12.508 0 0 0-6.829 11.301l.485 37.899-30.942 21.878a12.513 12.513 0 0 0-5.132 12.165 12.496 12.496 0 0 0 8.636 9.98zm47.242-27.406a12.498 12.498 0 0 0 5.278-10.367L430.016 38l15.347 11.45a12.484 12.484 0 0 0 11.489 1.82l18.128-6.145-6.148 18.129a12.5 12.5 0 0 0 1.824 11.488l11.45 15.348-19.145-.246h-.164a12.5 12.5 0 0 0-10.203 5.285l-11.055 15.629-5.684-18.281a12.497 12.497 0 0 0-8.222-8.227l-18.285-5.684zm0 0M303.75 170.887c6.906 0 12.5-5.602 12.5-12.5v-73.75c0-6.907-5.594-12.5-12.5-12.5-6.898 0-12.5 5.593-12.5 12.5v73.75c0 6.898 5.598 12.5 12.5 12.5zm0 0M303.75 51.375c3.285 0 6.516-1.34 8.84-3.668a12.586 12.586 0 0 0 3.66-8.832 12.59 12.59 0 0 0-3.66-8.84c-2.324-2.324-5.555-3.66-8.84-3.66s-6.512 1.332-8.836 3.66a12.594 12.594 0 0 0-3.664 8.84 12.59 12.59 0 0 0 3.664 8.832 12.602 12.602 0 0 0 8.836 3.668zm0 0" fill="#00b64f"/></symbol><symbol id="icon-knowledge" viewBox="0 0 464.87 464.87"><path d="M283.86 280.931c42.008-17.061 69.234-58.161 68.559-103.496 0-62.309-53.832-113-120-113s-120 50.691-120 113c-.675 45.335 26.55 86.435 68.559 103.496l.93.504 6.353 10.424c-11.342 6.565-15.214 21.081-8.65 32.422a23.732 23.732 0 0 0 3.051 4.154c-8.894 9.75-8.201 24.863 1.548 33.758a23.9 23.9 0 0 0 16.209 6.242h64c13.197.058 23.942-10.594 24-23.791a23.896 23.896 0 0 0-6.242-16.209c8.859-9.657 8.211-24.667-1.446-33.525a23.695 23.695 0 0 0-4.154-3.051l6.353-10.424.93-.504zm-19.442 71.504h-64a8 8 0 0 1 0-16h64a8 8 0 0 1 0 16zm0-32h-64a8 8 0 0 1 0-16h64a8 8 0 0 1 0 16zm12.18-53.769l-3.199 1.738a8.04 8.04 0 0 0-3.012 2.867l-10.461 17.164h-3.508v-60.688l37.656-37.656-11.312-11.313-40 40a8.003 8.003 0 0 0-2.344 5.656v64h-16v-64a8.003 8.003 0 0 0-2.344-5.656l-40-40-11.312 11.312 37.656 37.656v60.688h-3.508l-10.461-17.164a8.04 8.04 0 0 0-3.012-2.867l-3.199-1.738a8.583 8.583 0 0 0-.789-.371c-36.169-14.551-59.637-49.878-59.031-88.859 0-53.484 46.652-97 104-97s104 43.516 104 97c.606 38.981-22.863 74.308-59.031 88.859a8.733 8.733 0 0 0-.789.372zM60.838 79.592l7.155-14.31L115.99 89.28l-7.155 14.31zM346.938 85.335l50.906-16.979 5.062 15.178-50.905 16.979zM32.418 168.435h48v16h-48zM384.418 168.435h48v16h-48zM60.838 289.27l47.998-24 7.155 14.311-47.997 23.999zM348.836 279.61l7.155-14.31 47.997 23.998-7.155 14.31zM224.418 8.435h16v40h-16z" fill="#00b64f"/><path d="M464.418 384.435v-16c-104.371 0-215.281 25.23-215.996 72h-32.008c-.715-46.77-111.625-72-215.996-72v16c117.199 0 199.037 29.414 199.957 56H.418v16h464v-16H264.461c.92-26.586 82.758-56 199.957-56z" fill="#00b64f"/><path fill="#00b64f" d="M-.004 424.434l.842-15.978 152.027 8.008-.842 15.977zM311.979 416.465l152.027-8.023.843 15.977-152.027 8.023z"/></symbol><symbol id="icon-open-book" viewBox="0 0 297.001 297.001"><path d="M287.034 60.873l-20.819-.001V39.321a9.965 9.965 0 0 0-8.49-9.856c-.852-.128-21.134-3.074-45.557 1.37-27.227 4.954-48.941 17.171-63.668 35.64-14.728-18.469-36.442-30.686-63.668-35.64-24.424-4.443-44.706-1.498-45.557-1.37a9.967 9.967 0 0 0-8.49 9.856v21.551H9.966C4.463 60.872 0 65.335 0 70.839v187.805a9.966 9.966 0 0 0 13.244 9.412c.748-.259 75.431-25.747 131.12-.345a9.963 9.963 0 0 0 8.273 0c55.533-25.33 130.376.088 131.12.345a9.973 9.973 0 0 0 9.051-1.287 9.966 9.966 0 0 0 4.193-8.124V70.84c-.001-5.504-4.463-9.967-9.967-9.967zM19.933 245.309V80.805h10.852v132.726a9.968 9.968 0 0 0 3.458 7.539 9.972 9.972 0 0 0 7.969 2.319c.55-.08 43.846-6.024 75.478 15.679-38.965-6.663-77.963 1.044-97.757 6.241zm118.601-15.229c-13.932-12.588-32.079-21.1-53.702-25.034-10.406-1.894-20.06-2.446-27.78-2.446-2.292 0-4.414.049-6.333.126V48.473h-.001c19.155-.864 65.752 1.184 87.816 38.587v143.02zm19.932-143.019c21.985-37.243 68.655-39.384 87.816-38.563v154.228c-8.383-.338-20.62-.136-34.114 2.32-21.623 3.934-39.77 12.445-53.702 25.034V87.061zm20.811 152.013c31.636-21.716 74.955-15.766 75.495-15.686a9.965 9.965 0 0 0 11.443-9.857V80.806h10.852v164.503c-19.8-5.199-58.814-12.909-97.79-6.235z" fill="#00b64f"/></symbol><symbol id="icon-reading" viewBox="0 -8 480 480"><path d="M472 176h-24v-24a8 8 0 0 0-8-8h-19.594A76.973 76.973 0 0 0 432 104C432 46.656 363.816 0 280 0S128 46.656 128 104a76.973 76.973 0 0 0 11.594 40H40a8 8 0 0 0-8 8v24H8a8 8 0 0 0-8 8v272a8 8 0 0 0 8 8h464a8 8 0 0 0 8-8V184a8 8 0 0 0-8-8zM280 16c74.992 0 136 39.48 136 88a65.26 65.26 0 0 1-17.32 42.754 138.665 138.665 0 0 1-75.575 40.629 8.05 8.05 0 0 0-3.96 2.16L280 228.687v-28.925a7.997 7.997 0 0 0-7.71-8 188.75 188.75 0 0 1-30.786-3.547c-33.602-6.399-62.816-21.528-80.184-41.461A65.26 65.26 0 0 1 144 104c0-48.52 61.008-88 136-88zM16 192h16v256H16zm32 256v-32h144c19 .02 35.375 13.387 39.2 32zm144-48H48V160h103.902A155.605 155.605 0 0 0 232 202.465v214.398A55.806 55.806 0 0 0 192 400zm56 16.879V205.527c5.207.801 10.52 1.434 16 1.817V248c0 3.234 1.95 6.152 4.938 7.39s6.43.551 8.718-1.734l51.145-51.16A155.573 155.573 0 0 0 408.113 160H432v240H288a55.808 55.808 0 0 0-40 16.879zm40-.879h144v32H248.8c3.825-18.613 20.2-31.98 39.2-32zm176 32h-16V192h16zm0 0" fill="#00b64f"/><path d="M272 96h16v16h-16zm0 0M304 96h16v16h-16zm0 0M240 96h16v16h-16zm0 0M80 224h112v16H80zm0 0M80 272h112v16H80zm0 0M80 320h112v16H80zm0 0M336 224h64v16h-64zm0 0M288 272h112v16H288zm0 0M288 320h112v16H288zm0 0" fill="#00b64f"/></symbol><symbol id="icon-search" viewBox="0 -48 512 512"><path d="M512 352V8c0-4.414-3.574-8-8-8H288c-13.36 0-24.809 9.23-32 19.543C248.809 9.23 237.36 0 224 0H8C3.586 0 0 3.586 0 8v344c0 4.414 3.586 8 8 8h216c13.23 0 24 10.77 24 24v9.055l-11.559-7.711A8.061 8.061 0 0 0 232 384H16v-8H0v16c0 4.414 3.586 8 8 8h221.574l21.985 14.656c1.343.895 2.898 1.344 4.441 1.344s3.098-.45 4.441-1.344L282.426 400H504c4.426 0 8-3.586 8-8v-16h-16v8H280a8.061 8.061 0 0 0-4.441 1.344L264 393.054V384c0-13.23 10.77-24 24-24h160v-16H288c-9.04 0-17.297 3.129-24 8.207V40c0-5.703 11.07-24 24-24h208v328h-32v16h40c4.426 0 8-3.586 8-8zm-264 .016A39.841 39.841 0 0 0 224 344H16V16h208c12.93 0 24 18.297 24 24zm0 0"/><path d="M48 56h48v16H48zm0 0M112 56h104v16H112zm0 0M160 104h56v16h-56zm0 0M48 104h96v16H48zm0 0M48 152h48v16H48zm0 0M112 152h104v16H112zm0 0M48 200h48v16H48zm0 0M112 200h104v16H112zm0 0M160 248h56v16h-56zm0 0M48 248h96v16H48zm0 0M48 296h48v16H48zm0 0M112 296h104v16H112zm0 0M296 296h48v16h-48zm0 0M360 296h56v16h-56zm0 0M444.152 310.32a7.92 7.92 0 0 0 3.993-1.074l27.718-16a8.041 8.041 0 0 0 3.73-4.855 7.988 7.988 0 0 0-.8-6.07l-36-62.36c-5.219-9.016-15.418-13.274-25.121-11.504l-16.863-29.21c14.12-9.696 24.254-23.895 28.734-40.614 4.977-18.578 2.426-37.977-7.191-54.633-9.61-16.656-25.137-28.559-43.711-33.535-18.586-4.985-37.977-2.426-54.625 7.183-16.657 9.618-28.567 25.145-33.543 43.711-4.977 18.57-2.426 37.977 7.191 54.633 9.61 16.656 25.137 28.559 43.711 33.535a72.292 72.292 0 0 0 18.754 2.489c9.086 0 18.07-1.786 26.582-5.2l17.113 29.633c-6.39 7.512-7.8 18.488-2.601 27.504l36 62.352a7.969 7.969 0 0 0 6.93 4.015zm-98.648-136.242c-14.45-3.871-26.512-13.133-33.992-26.086-7.48-12.953-9.473-28.039-5.59-42.488 3.863-14.45 13.133-26.52 26.086-34 8.625-4.984 18.199-7.527 27.894-7.527 4.868 0 9.77.64 14.586 1.933C388.938 69.785 401 79.047 408.48 92s9.473 28.04 5.59 42.488c-3.863 14.45-13.132 26.52-26.086 34s-28.062 9.465-42.48 5.59zM418 225.031a7.949 7.949 0 0 1 3.984-1.07c2.778 0 5.473 1.43 6.946 4l32 55.422-13.86 8-32-55.422c-2.207-3.816-.894-8.723 2.93-10.93zm0 0"/><path d="M368 88h16v16h-16zm0 0M296 248h96v16h-96zm0 0M424 176v16h48c4.426 0 8-3.586 8-8V56c0-4.414-3.574-8-8-8h-56v16h48v112zm0 0"/></symbol><symbol id="icon-vesi" viewBox="-67 0 512 512.001"><path d="M369.738 96.016h-.984c-22.367 0-40.477-18.086-40.477-40.47 0-22.32 18.16-40.48 40.477-40.48a7.529 7.529 0 0 0 7.535-7.53A7.537 7.537 0 0 0 368.754 0H55.547C24.922 0 0 24.922 0 55.547v333.098a7.536 7.536 0 0 0 7.535 7.53 7.535 7.535 0 0 0 7.531-7.53V93.585c8.305 8.942 19.871 15.169 32.707 16.954v386.375c-18.113-.441-32.707-15.3-32.707-33.508v-44.629a7.528 7.528 0 0 0-7.53-7.53A7.529 7.529 0 0 0 0 418.776v44.63C0 490.194 21.797 512 48.598 512h280.07c26.797 0 48.605-21.805 48.605-48.594V103.551a7.537 7.537 0 0 0-7.535-7.535zM22.278 78.574h53.527a7.53 7.53 0 0 0 7.53-7.531 7.531 7.531 0 0 0-7.53-7.535H15.867c-1.152-5.863-1.023-11.383.168-16.742h208.43a7.531 7.531 0 0 0 7.531-7.536 7.53 7.53 0 0 0-7.531-7.53H22.867c7.371-10.075 19.27-16.634 32.68-16.634h275.21A55.788 55.788 0 0 0 318.603 31.7h-64.004a7.534 7.534 0 1 0 0 15.067h59.32a55.304 55.304 0 0 0-.14 16.742h-207.84a7.534 7.534 0 1 0 0 15.066c220.304-.047 210.898.106 212.199-.113 3.008 6.613 7.293 12.644 12.578 17.555H55.547c-12.98 0-25.39-6.11-33.27-17.442zm339.929 384.832c0 18.48-15.047 33.528-33.539 33.528H62.844V111.082h299.363zm0 0"/><path d="M87.516 278.527c1.39 3.891 3.02 4.461 14.476 18.02a13.127 13.127 0 0 0 9.91 4.515h37.684c3.8 0 7.414-1.644 9.906-4.515 19.188-24.453 8.352-2.203 24.121-44.899 1.88-5.234-2.011-10.75-7.562-10.75h-3.469l-28.816-53.578h59.953v204.055h-15.711a8.035 8.035 0 0 0 0 16.07h47.488a8.035 8.035 0 0 0 0-16.07H219.79v-204.05h60.441l-28.816 53.577c-2.059.29-7.254-1.242-10.527 3.41a8.024 8.024 0 0 0-.992 7.336c15.656 42.375 5.046 20.735 24.12 44.899a13.121 13.121 0 0 0 9.91 4.515h37.68c3.805 0 7.415-1.644 9.91-4.515 11.247-13.305 13.083-14.121 14.477-18.016l9.645-26.883c.883-2.46.511-5.199-.992-7.335-3.211-4.563-8.368-3.165-10.04-3.415L305.79 187.32h29.156a8.035 8.035 0 0 0 0-16.07H219.79v-28.559a8.035 8.035 0 0 0-16.07 0v28.559H88.562c-4.437 0-8.035 3.598-8.035 8.035s3.598 8.04 8.035 8.04h29.645l-28.812 53.577c-2.063.29-7.258-1.242-10.532 3.41a8.035 8.035 0 0 0-.992 7.336zm233.535-5.945l-10.785 12.41h-35l-10.79-12.41-5.601-15.61h67.777zm-4.696-31.68h-46.69l23.343-43.41zm-185.367-43.41l23.344 43.41h-46.691zm33.645 59.48l-5.602 15.614-10.785 12.406h-35.004l-10.785-12.406-5.602-15.613zm0 0M313.203 440.684a8.035 8.035 0 0 0 0-16.07H110.305a8.035 8.035 0 0 0 0 16.07zm0 0M332.625 458.094H90.887c-4.438 0-8.035 3.597-8.035 8.035s3.597 8.039 8.035 8.039h241.738c4.438 0 8.035-3.602 8.035-8.04s-3.597-8.034-8.035-8.034zm0 0"/></symbol></svg>