<svg height="106px" viewBox="0 -48 512 512" width="106px" xmlns="http://www.w3.org/2000/svg" id="icon-search"><path d="m512 352v-344c0-4.414062-3.574219-8-8-8h-216c-13.359375 0-24.808594 9.230469-32 19.542969-7.191406-10.3125-18.640625-19.542969-32-19.542969h-216c-4.414062 0-8 3.585938-8 8v344c0 4.414062 3.585938 8 8 8h216c13.230469 0 24 10.769531 24 24v9.054688l-11.558594-7.710938c-1.3125-.871094-2.867187-1.34375-4.441406-1.34375h-216v-8h-16v16c0 4.414062 3.585938 8 8 8h221.574219l21.984375 14.65625c1.34375.894531 2.898437 1.34375 4.441406 1.34375s3.097656-.449219 4.441406-1.34375l21.984375-14.65625h221.574219c4.425781 0 8-3.585938 8-8v-16h-16v8h-216c-1.574219 0-3.128906.472656-4.441406 1.34375l-11.558594 7.710938v-9.054688c0-13.230469 10.769531-24 24-24h160v-16h-160c-9.039062 0-17.296875 3.128906-24 8.207031v-312.207031c0-5.703125 11.070312-24 24-24h208v328h-32v16h40c4.425781 0 8-3.585938 8-8zm-264 .015625c-6.6875-5.023437-15-8.015625-24-8.015625h-208v-328h208c12.929688 0 24 18.296875 24 24zm0 0"/><path d="m48 56h48v16h-48zm0 0"/><path d="m112 56h104v16h-104zm0 0"/><path d="m160 104h56v16h-56zm0 0"/><path d="m48 104h96v16h-96zm0 0"/><path d="m48 152h48v16h-48zm0 0"/><path d="m112 152h104v16h-104zm0 0"/><path d="m48 200h48v16h-48zm0 0"/><path d="m112 200h104v16h-104zm0 0"/><path d="m160 248h56v16h-56zm0 0"/><path d="m48 248h96v16h-96zm0 0"/><path d="m48 296h48v16h-48zm0 0"/><path d="m112 296h104v16h-104zm0 0"/><path d="m296 296h48v16h-48zm0 0"/><path d="m360 296h56v16h-56zm0 0"/><path d="m444.152344 310.320312c1.359375 0 2.734375-.34375 3.992187-1.074218l27.71875-16c1.832031-1.0625 3.175781-2.804688 3.730469-4.855469.550781-2.046875.261719-4.230469-.800781-6.070313l-36-62.359374c-5.21875-9.015626-15.417969-13.273438-25.121094-11.503907l-16.863281-29.210937c14.121094-9.695313 24.253906-23.894532 28.734375-40.613282 4.976562-18.578124 2.425781-37.976562-7.191407-54.632812-9.609374-16.65625-25.136718-28.558594-43.710937-33.535156-18.585937-4.984375-37.976563-2.425782-54.625 7.183594-16.65625 9.617187-28.566406 25.144531-33.542969 43.710937-4.976562 18.570313-2.425781 37.976563 7.191406 54.632813 9.609376 16.65625 25.136719 28.558593 43.710938 33.535156 6.199219 1.664062 12.496094 2.488281 18.753906 2.488281 9.085938 0 18.070313-1.785156 26.582032-5.199219l17.113281 29.632813c-6.390625 7.511719-7.800781 18.488281-2.601563 27.503906l36 62.351563c1.472656 2.574218 4.160156 4.015624 6.929688 4.015624zm-98.648438-136.242187c-14.449218-3.871094-26.511718-13.132813-33.992187-26.085937-7.480469-12.953126-9.472657-28.039063-5.589844-42.488282 3.863281-14.449218 13.132813-26.519531 26.085937-34 8.625-4.984375 18.199219-7.527344 27.894532-7.527344 4.867187 0 9.769531.640626 14.585937 1.933594 14.449219 3.875 26.511719 13.136719 33.992188 26.089844s9.472656 28.039062 5.589843 42.488281c-3.863281 14.449219-13.132812 26.519531-26.085937 34s-28.0625 9.464844-42.480469 5.589844zm72.496094 50.953125c1.257812-.726562 2.632812-1.070312 3.984375-1.070312 2.777344 0 5.472656 1.429687 6.945313 4l32 55.421874-13.859376 8-32-55.421874c-2.207031-3.816407-.894531-8.722657 2.929688-10.929688zm0 0"/><path d="m368 88h16v16h-16zm0 0"/><path d="m296 248h96v16h-96zm0 0"/><path d="m424 176v16h48c4.425781 0 8-3.585938 8-8v-128c0-4.414062-3.574219-8-8-8h-56v16h48v112zm0 0"/></svg>
