<svg height="106px" viewBox="0 0 480 480" width="106px" xmlns="http://www.w3.org/2000/svg" id="icon-book-man"><path d="m477.753906 326c-8.214844-31.804688-36.90625-54.015625-69.753906-54h-80c-39.746094.042969-71.957031 32.253906-72 72v128c0 4.417969 3.582031 8 8 8h208c4.417969 0 8-3.582031 8-8v-128c-.011719-6.070312-.765625-12.113281-2.246094-18zm-71.203125.3125-23.472656-3.914062 19.546875-23.460938zm-15.640625-38.3125-22.910156 27.496094-22.910156-27.496094zm-57.535156 10.945312 19.546875 23.453126-23.449219 3.90625zm-61.375 45.054688c.050781-27.292969 19.75-50.578125 46.65625-55.152344l-6.578125 46.015625c-.359375 2.527344.503906 5.070313 2.328125 6.855469 1.824219 1.78125 4.390625 2.585938 6.90625 2.167969l38.6875-6.445313v126.558594h-48v-104h-16v104h-24zm192 120h-24v-104h-16v104h-48v-126.558594l38.6875 6.445313c2.515625.417969 5.082031-.386719 6.90625-2.167969 1.824219-1.785156 2.6875-4.328125 2.328125-6.855469l-6.585937-46.078125c21.773437 3.667969 39.359374 19.785156 44.902343 41.160156 1.160157 4.59375 1.753907 9.316407 1.761719 14.054688zm0 0"/><path d="m424 216v-24c4.417969 0 8-3.582031 8-8-.035156-15.539062-5.722656-30.535156-16-42.191406v-101.808594c0-4.417969-3.582031-8-8-8h-24v-24c0-4.417969-3.582031-8-8-8h-128c-12.640625.0351562-24.511719 6.0625-32 16.246094-7.488281-10.183594-19.359375-16.2109378-32-16.246094h-144c-4.417969 0-8 3.582031-8 8v24h-24c-4.417969 0-8 3.582031-8 8v272c0 4.417969 3.582031 8 8 8h72v40c0 3.234375 1.949219 6.152344 4.9375 7.390625s6.429688.550781 8.71875-1.734375l18.34375-18.34375 18.34375 18.34375c1.5 1.5 3.535156 2.34375 5.65625 2.34375 1.050781.003906 2.09375-.203125 3.0625-.609375 2.988281-1.238281 4.9375-4.15625 4.9375-7.390625v-40h104v-16h-24v-16h40v-16h-38.527344c3.378906-9.554688 12.394532-15.957031 22.527344-16h48v-16h-48c-8.683594.03125-17.117188 2.914062-24 8.207031v-208.207031c0-13.253906 10.746094-24 24-24h120v104c-35.328125.039062-63.960938 28.671875-64 64 0 4.417969 3.582031 8 8 8v24c0 30.929688 25.070312 56 56 56s56-25.070312 56-56zm-376-200h136c13.253906 0 24 10.746094 24 24v208.207031c-6.882812-5.292969-15.316406-8.175781-24-8.207031h-136zm-32 32h16v256h-16zm32 256v-48h136c10.132812.042969 19.148438 6.445312 22.527344 16h-142.527344v16h16v16zm80 36.6875-10.34375-10.34375c-3.125-3.121094-8.1875-3.121094-11.3125 0l-10.34375 10.34375v-52.6875h32zm80-36.6875h-64v-16h64zm192-175.351562c-5.003906-2.917969-10.386719-5.121094-16-6.550782v-74.097656h16zm-32 7.351562c2.304688-.023438 4.609375.164062 6.878906.558594 20.0625 2.941406 36.128906 18.140625 40.175782 38.007812-9.8125-3.8125-18.296876-10.421875-24.398438-19.007812-1.328125-1.992188-3.480469-3.28125-5.863281-3.519532-.273438 0-.535157 0-.800781 0-2.121094 0-4.15625.84375-5.65625 2.34375-1.878907 1.765626-3.992188 3.265626-6.28125 4.457032-16.222657 7.535156-33.417969 12.769531-51.085938 15.558594 4.59375-22.328126 24.234375-38.367188 47.03125-38.398438zm0 120c-22.082031-.027344-39.972656-17.917969-40-40l-.054688-26.671875c17.988282-3.050781 35.460938-8.617187 51.902344-16.527344.984375-.542969 1.929688-1.097656 2.824219-1.65625 6.929687 7.839844 15.605469 13.941407 25.328125 17.816407v27.039062c-.027344 22.082031-17.917969 39.972656-40 40zm0 0"/><path d="m248 48h96v16h-96zm0 0"/><path d="m248 96h96v16h-96zm0 0"/><path d="m248 144h48v16h-48zm0 0"/><path d="m248 192h48v16h-48zm0 0"/><path d="m72 48h112v16h-112zm0 0"/><path d="m72 96h112v16h-112zm0 0"/><path d="m72 144h112v16h-112zm0 0"/><path d="m72 192h112v16h-112zm0 0"/></svg>
