<svg height="512pt" viewBox="-67 0 512 512.001" width="512pt" xmlns="http://www.w3.org/2000/svg"><path d="m369.738281 96.015625h-.984375c-22.367187 0-40.476562-18.085937-40.476562-40.46875 0-22.320313 18.160156-40.480469 40.476562-40.480469 4.160156 0 7.535156-3.363281 7.535156-7.53125 0-4.160156-3.375-7.535156-7.535156-7.535156h-313.207031c-30.625 0-55.546875 24.921875-55.546875 55.546875v333.097656c0 4.15625 3.375 7.53125 7.535156 7.53125 4.15625 0 7.53125-3.375 7.53125-7.53125v-295.058593c8.304688 8.941406 19.871094 15.167968 32.707032 16.953124v386.375c-18.113282-.441406-32.707032-15.300781-32.707032-33.507812v-44.628906c0-4.167969-3.375-7.53125-7.53125-7.53125-4.160156 0-7.535156 3.363281-7.535156 7.53125v44.628906c0 26.789062 21.796875 48.59375 48.597656 48.59375h280.070313c26.796875 0 48.605469-21.804688 48.605469-48.59375v-359.855469c0-4.160156-3.375-7.535156-7.535157-7.535156zm-347.460937-17.441406h53.527344c4.160156 0 7.53125-3.371094 7.53125-7.53125 0-4.164063-3.371094-7.535157-7.53125-7.535157h-59.9375c-1.152344-5.863281-1.023438-11.382812.167968-16.742187h208.429688c4.160156 0 7.53125-3.371094 7.53125-7.535156 0-4.160157-3.371094-7.53125-7.53125-7.53125h-201.597656c7.371093-10.074219 19.269531-16.632813 32.679687-16.632813h275.210937c-5.019531 4.714844-9.160156 10.351563-12.15625 16.632813h-64.003906c-4.160156 0-7.535156 3.371093-7.535156 7.53125 0 4.164062 3.375 7.535156 7.535156 7.535156h59.320313c-.894531 5.609375-.945313 11.109375-.140625 16.742187h-207.839844c-4.160156 0-7.535156 3.371094-7.535156 7.535157 0 4.160156 3.375 7.53125 7.535156 7.53125 220.304688-.046875 210.898438.105469 212.199219-.113281 3.007812 6.613281 7.292969 12.644531 12.578125 17.554687h-275.167969c-12.980469 0-25.390625-6.109375-33.269531-17.441406zm339.929687 384.832031c0 18.480469-15.046875 33.527344-33.539062 33.527344h-265.824219v-385.851563h299.363281zm0 0"/><path d="m87.515625 278.527344c1.390625 3.890625 3.019531 4.460937 14.476563 18.019531 2.496093 2.871094 6.109374 4.515625 9.910156 4.515625h37.683594c3.800781 0 7.414062-1.644531 9.90625-4.515625 19.1875-24.453125 8.351562-2.203125 24.121093-44.898437 1.878907-5.234376-2.011719-10.75-7.5625-10.75h-3.46875l-28.816406-53.578126h59.953125v204.054688h-15.710938c-4.4375 0-8.035156 3.597656-8.035156 8.035156s3.597656 8.035156 8.035156 8.035156h47.488282c4.4375 0 8.035156-3.597656 8.035156-8.035156s-3.597656-8.035156-8.035156-8.035156h-15.707032v-204.050781h60.441407l-28.816407 53.578125c-2.058593.289062-7.253906-1.242188-10.527343 3.410156-1.507813 2.136719-1.875 4.875-.992188 7.335938 15.65625 42.375 5.046875 20.734374 24.121094 44.898437 2.496094 2.871094 6.105469 4.515625 9.910156 4.515625h37.679688c3.804687 0 7.414062-1.644531 9.910156-4.515625 11.246094-13.304687 13.082031-14.121094 14.476563-18.015625l9.644531-26.882812c.882812-2.460938.511719-5.199219-.992188-7.335938-3.210937-4.5625-8.367187-3.164062-10.039062-3.414062l-28.816407-53.578126h29.15625c4.4375 0 8.035157-3.597656 8.035157-8.035156s-3.597657-8.035156-8.035157-8.035156h-115.15625v-28.558594c0-4.4375-3.597656-8.035156-8.035156-8.035156s-8.035156 3.597656-8.035156 8.035156v28.558594h-115.15625c-4.4375 0-8.035156 3.597656-8.035156 8.035156s3.597656 8.039063 8.035156 8.039063h29.644531l-28.8125 53.578125c-2.0625.289062-7.257812-1.242188-10.53125 3.410156-1.503906 2.136719-1.875 4.875-.992187 7.335938zm233.535156-5.945313-10.785156 12.410157h-35l-10.789063-12.410157-5.601562-15.609375h67.777344zm-4.695312-31.679687h-46.691407l23.34375-43.410156zm-185.367188-43.410156 23.34375 43.410156h-46.691406zm33.644531 59.480468-5.601562 15.613282-10.785156 12.40625h-35.003906l-10.785157-12.40625-5.601562-15.613282zm0 0"/><path d="m313.203125 440.683594c4.4375 0 8.035156-3.597656 8.035156-8.035156s-3.597656-8.035157-8.035156-8.035157h-202.898437c-4.4375 0-8.035157 3.597657-8.035157 8.035157s3.597657 8.035156 8.035157 8.035156zm0 0"/><path d="m332.625 458.09375h-241.738281c-4.4375 0-8.035157 3.597656-8.035157 8.035156s3.597657 8.039063 8.035157 8.039063h241.738281c4.4375 0 8.035156-3.601563 8.035156-8.039063s-3.597656-8.035156-8.035156-8.035156zm0 0"/></svg>